:SAMPLES-PER-SECOND 30
:FULLY-SPECIFIED
:DEGREES
32
root  75.5618 40.0288 -5.95262 -173.28 -81.8648 178.993
RightUpLeg  -3.26883 -7.32931 -4.68008
RightLeg  8.12811 -0.511462 1.57703
RightFoot  -10.4833 -0.0832288 1.6496
RightToes  1.74622e-010 0 -3.6325e-017
Spine  2.63996 -2.103 0.899671
Spine1  8.95233 -2.47735 0.59673
HEad  -14.8363 11.6242 -6.27826
LeftShoulder1  8.97893 -12.4226 -49.2163
LeftArm  5.93413 3.71467 -25.922
LeftForeArm  34.3498 -41.4982 -7.66071
LeftHand  -0.244104 0.0205437 5.32207
RightShoulder  6.05642 9.83592 39.3006
RightArm  1.024 -22.2174 33.5409
RightForeArm  2.2663 45.9388 11.4476
RightHand  0.0549862 -7.30085 -5.26248
LeftUpLeg  0.119896 7.50727 6.18415
LeftLeg  3.9215 17.1323 -3.95235
LeftFoot  -7.76943 0.189377 -4.59563
LeftToes  -5.82109e-011 8.55049e-011 -1.09726e-011
33
root  75.2109 39.878 -6.31692 -172.918 -82.4411 178.574
RightUpLeg  -3.37513 -7.78056 -4.17032
RightLeg  10.1251 -0.634439 1.25366
RightFoot  -12.4106 -0.0679379 1.74861
RightToes  1.74622e-010 0 -3.6325e-017
Spine  3.07188 -1.74037 1.72122
Spine1  8.87358 -1.97776 0.303477
HEad  -15.1698 10.363 -7.24866
LeftShoulder1  9.03635 -12.5232 -49.2208
LeftArm  3.40216 5.15282 -24.9079
LeftForeArm  37.719 -47.0676 -9.31817
LeftHand  -0.244104 0.0205437 5.32207
RightShoulder  6.14795 9.77434 40.1551
RightArm  -5.11565 -25.7826 35.2443
RightForeArm  1.34191 51.6142 14.1422
RightHand  0.128906 -8.2105 -6.74827
LeftUpLeg  -0.471171 8.66778 6.73683
LeftLeg  6.76866 15.1214 -2.88894
LeftFoot  -9.86798 0.136358 -6.18807
LeftToes  -5.82109e-011 8.55049e-011 -1.09726e-011
34
root  74.8966 39.5914 -6.66378 -175.52 -83.3727 -178.861
RightUpLeg  -4.23242 -8.86233 -3.22458
RightLeg  13.6313 -0.502778 0.782824
RightFoot  -14.8884 -0.0443109 1.82598
RightToes  1.74622e-010 0 -3.6325e-017
Spine  3.86989 -1.54852 3.11208
Spine1  8.56754 -1.64876 0.231779
HEad  -16.0879 9.18427 -8.73564
LeftShoulder1  8.97093 -12.4817 -48.9905
LeftArm  1.32944 6.58381 -24.2798
LeftForeArm  39.6253 -52.4199 -11.4061
LeftHand  -0.244104 0.0205437 5.32207
RightShoulder  6.14431 9.73019 40.2754
RightArm  -9.47014 -27.4256 37.8303
RightForeArm  3.51681 56.4597 16.8876
RightHand  0.207269 -9.08675 -7.71502
LeftUpLeg  -2.74749 13.0576 7.02322
LeftLeg  12.4716 9.55352 -0.128115
LeftFoot  -12.735 -0.0239025 -8.10638
LeftToes  -5.82109e-011 8.55049e-011 -1.09726e-011
35
root  74.64 39.137 -6.94749 172.722 -85.1004 -167.452
RightUpLeg  -5.3503 -10.7307 -1.70953
RightLeg  18.4667 -0.354674 0.122186
RightFoot  -17.797 -0.0013961 2.09766
RightToes  1.74622e-010 0 -3.6325e-017
Spine  5.36536 -1.83183 5.49156
Spine1  8.12823 -1.69239 0.160019
HEad  -17.9833 7.93997 -9.96162
LeftShoulder1  8.89228 -12.4784 -48.57
LeftArm  -0.596937 8.20189 -24.1503
LeftForeArm  39.7232 -57.5096 -14.1414
LeftHand  -0.244104 0.0205437 5.32207
RightShoulder  6.22001 9.9049 40.236
RightArm  -10.7539 -27.1003 39.3932
RightForeArm  10.1838 61.2641 20.1229
RightHand  0.22604 -10.7886 -5.95729
LeftUpLeg  -7.03628 14.1809 7.37831
LeftLeg  21.6025 6.47268 3.55432
LeftFoot  -15.1418 -0.218274 -9.38752
LeftToes  -5.82109e-011 8.55049e-011 -1.09726e-011
36
root  74.3774 38.6107 -7.19266 147.23 -86.6706 -142.942
RightUpLeg  -5.76776 -12.0292 -0.259216
RightLeg  23.3595 -0.91116 -0.71528
RightFoot  -20.7979 0.0797663 2.66065
RightToes  1.74622e-010 0 -3.6325e-017
Spine  7.83384 -2.17088 8.03433
Spine1  7.37665 -1.6119 -0.159421
HEad  -20.1532 6.65821 -9.99494
LeftShoulder1  8.95458 -12.628 -48.4556
LeftArm  -1.8965 10.1907 -24.1599
LeftForeArm  41.0019 -62.7093 -17.8885
LeftHand  -0.244104 0.0205437 5.32207
RightShoulder  6.4353 10.1518 40.9317
RightArm  -8.87085 -25.4388 38.0515
RightForeArm  18.4945 67.1827 26.3131
RightHand  0.172013 -12.0684 -3.92949
LeftUpLeg  -11.6951 9.19803 8.63005
LeftLeg  32.7969 9.41618 6.81818
LeftFoot  -15.7372 -0.2458 -8.81531
LeftToes  -5.82109e-011 8.55049e-011 -1.09726e-011
37
root  74.0184 38.1211 -7.43922 119.293 -87.1861 -116.194
RightUpLeg  -5.49742 -11.6258 0.5665
RightLeg  27.4464 -2.45283 -1.61803
RightFoot  -23.5669 0.172663 3.11197
RightToes  1.74622e-010 0 -3.6325e-017
Spine  10.3466 -2.11066 9.86528
Spine1  6.76656 -1.00237 -0.87086
HEad  -22.1217 5.22383 -9.42128
LeftShoulder1  9.07368 -12.7137 -48.8446
LeftArm  -2.41881 12.6522 -23.6561
LeftForeArm  46.0007 -68.4105 -23.8395
LeftHand  -0.244104 0.0205437 5.32207
RightShoulder  6.63627 10.1986 42.1566
RightArm  -5.56021 -22.5109 34.7669
RightForeArm  29.7175 73.7809 40.3263
RightHand  0.208036 -12.0747 -4.60263
LeftUpLeg  -16.233 7.39749 9.15033
LeftLeg  43.6789 9.8517 10.2963
LeftFoot  -15.2031 -0.140891 -6.86561
LeftToes  -5.82109e-011 8.55049e-011 -1.09726e-011
38
root  73.4935 37.7495 -7.67143 105.583 -87.3761 -103.179
RightUpLeg  -4.88285 -11.0633 0.859256
RightLeg  30.0388 -3.45603 -2.39925
RightFoot  -25.6416 0.210979 3.07182
RightToes  1.74622e-010 0 -3.6325e-017
Spine  11.4045 -1.76871 11.1788
Spine1  7.27275 -0.052036 -2.23747
HEad  -24.0052 4.07387 -8.64647
LeftShoulder1  9.05034 -12.5344 -49.2627
LeftArm  -2.60296 15.9006 -22.5123
LeftForeArm  57.3035 -74.4411 -35.1813
LeftHand  -0.244104 0.0205437 5.32207
RightShoulder  6.6698 10.0875 42.7515
RightArm  -3.0509 -18.2373 32.6102
RightForeArm  56.4261 78.5973 69.9988
RightHand  0.280961 -11.8909 -5.92403
LeftUpLeg  -20.6296 7.28648 8.60608
LeftLeg  52.4503 8.97627 12.7186
LeftFoot  -15.147 -0.0847785 -5.3001
LeftToes  -5.82109e-011 8.55049e-011 -1.09726e-011
39
root  72.7612 37.5776 -7.85829 100.043 -87.8633 -97.6724
RightUpLeg  -3.63433 -10.8428 0.573345
RightLeg  30.3836 -3.8817 -2.69997
RightFoot  -26.769 0.211094 2.89684
RightToes  1.74622e-010 0 -3.6325e-017
Spine  10.836 -1.26534 12.4132
Spine1  8.65696 1.16029 -4.44391
HEad  -25.6618 3.13466 -7.58714
LeftShoulder1  8.90689 -12.2578 -49.3305
LeftArm  -2.48906 20.3215 -21.0554
LeftForeArm  81.1957 -79.4227 -58.9665
LeftHand  -0.244104 0.0205437 5.32207
RightShoulder  6.54126 9.98761 42.2037
RightArm  -2.1685 -13.8105 32.8969
RightForeArm  97.6267 78.6971 109.904
RightHand  0.274342 -12.7949 -5.21955
LeftUpLeg  -24.5645 7.95036 7.04635
LeftLeg  57.7549 7.52494 13.1366
LeftFoot  -15.9586 -0.11141 -5.1162
LeftToes  -5.82109e-011 8.55049e-011 -1.09726e-011
40
root  71.8146 37.6793 -8.01634 121.227 -88.7283 -118.415
RightUpLeg  -1.3965 -11.0532 -0.570815
RightLeg  28.0822 -3.64827 -2.35407
RightFoot  -26.7906 0.237748 3.09314
RightToes  1.74622e-010 0 -3.6325e-017
Spine  9.97257 -0.235335 13.1871
Spine1  9.1205 2.94179 -7.26506
HEad  -25.9709 1.71785 -6.22603
LeftShoulder1  8.81785 -12.1561 -49.1545
LeftArm  -1.53528 25.8233 -19.4448
LeftForeArm  118.906 -80.8656 -96.9619
LeftHand  -0.244104 0.0205437 5.32207
RightShoulder  6.35223 9.88376 41.236
RightArm  -2.10327 -11.3438 34.0832
RightForeArm  125.427 75.1974 135.284
RightHand  0.245696 -13.527 -4.38439
LeftUpLeg  -27.3294 9.40568 4.46528
LeftLeg  58.6855 6.36028 11.7
LeftFoot  -16.6413 -0.152511 -5.45046
LeftToes  -5.82109e-011 8.55049e-011 -1.09726e-011
41
root  70.6879 38.0294 -8.1592 -159.171 -89.0074 162.774
RightUpLeg  1.52585 -11.7682 -2.72916
RightLeg  23.8358 -2.42123 -1.41222
RightFoot  -25.171 0.265057 3.58979
RightToes  1.74622e-010 0 -3.6325e-017
Spine  9.66956 1.36151 13.0098
Spine1  7.70151 5.12258 -10.1961
HEad  -24.4042 -0.290592 -4.68477
LeftShoulder1  8.73536 -12.1819 -48.6123
LeftArm  0.106422 31.8334 -17.9655
LeftForeArm  146.527 -78.8489 -125.637
LeftHand  -0.244104 0.0205437 5.32207
RightShoulder  6.2026 9.7387 40.6628
RightArm  -1.37364 -11.6597 34.5141
RightForeArm  136.659 70.9918 147.216
RightHand  0.297715 -12.4019 -5.87761
LeftUpLeg  -28.6938 11.8552 0.872699
LeftLeg  55.4818 5.93712 9.71096
LeftFoot  -16.5576 -0.141317 -5.2727
LeftToes  -5.82109e-011 8.55049e-011 -1.09726e-011
42
root  69.4248 38.4914 -8.25062 -112.946 -87.5607 117.573
RightUpLeg  4.48925 -12.8859 -5.41927
RightLeg  19.2719 -0.483055 -0.146419
RightFoot  -21.5506 0.237859 4.30956
RightToes  1.74622e-010 0 -3.6325e-017
Spine  9.1537 2.82159 12.2791
Spine1  5.89514 6.91847 -12.817
HEad  -22.1539 -1.97616 -3.29732
LeftShoulder1  8.48831 -12.1099 -47.4403
LeftArm  1.03946 37.7792 -17.3061
LeftForeArm  160.096 -75.6466 -140.886
LeftHand  -0.244104 0.0205437 5.32207
RightShoulder  6.14778 9.6991 40.4036
RightArm  0.822437 -13.2643 34.3197
RightForeArm  140.536 67.8867 152.46
RightHand  0.297661 -10.8731 -7.19453
LeftUpLeg  -28.9617 14.4184 -3.17735
LeftLeg  49.5785 6.12435 8.08805
LeftFoot  -16.3877 -0.118426 -4.91704
LeftToes  -5.82109e-011 8.55049e-011 -1.09726e-011
43
root  68.0898 38.9039 -8.26601 -100.16 -86.485 105.814
RightUpLeg  6.76252 -13.5098 -7.75586
RightLeg  16.3443 0.766681 0.942904
RightFoot  -17.0065 0.180151 6.06133
RightToes  1.74622e-010 0 -3.6325e-017
Spine  7.58091 3.61369 11.6867
Spine1  5.64721 7.96994 -14.8989
HEad  -20.8355 -2.77802 -2.19533
LeftShoulder1  8.24279 -12.0115 -46.3389
LeftArm  -0.00859349 43.0162 -17.6738
LeftForeArm  166.901 -72.168 -149.634
LeftHand  -0.244104 0.0205437 5.32207
RightShoulder  6.21606 9.91602 40.1728
RightArm  3.96542 -14.3511 34.016
RightForeArm  144.648 66.9153 154.124
RightHand  0.210784 -11.0892 -5.39838
LeftUpLeg  -28.3121 15.6804 -6.67677
LeftLeg  42.5749 6.26185 6.53359
LeftFoot  -16.9092 -0.157297 -5.29796
LeftToes  -5.82109e-011 8.55049e-011 -1.09726e-011
44
root  66.7608 39.1633 -8.22663 -94.0257 -85.9607 100.42
RightUpLeg  7.53097 -14.4821 -9.25039
RightLeg  16.7803 2.14045 1.1589
RightFoot  -13.2041 0.0624557 9.39184
RightToes  1.74622e-010 0 -3.6325e-017
Spine  5.74103 3.98745 11.3794
Spine1  6.65329 8.63665 -16.4227
HEad  -20.4225 -3.17985 -1.44759
LeftShoulder1  8.28682 -12.1116 -46.2842
LeftArm  -2.84069 46.7036 -18.8012
LeftForeArm  170.089 -69.1914 -154.495
LeftHand  -0.244104 0.0205437 5.32207
RightShoulder  6.39113 10.2767 40.2262
RightArm  7.34073 -14.8665 33.1869
RightForeArm  149.16 67.9243 153.414
RightHand  0.0769198 -11.3529 -2.53443
LeftUpLeg  -26.5072 15.1444 -8.85766
LeftLeg  35.3372 5.70933 4.71383
LeftFoot  -17.535 -0.224271 -6.09925
LeftToes  -5.82109e-011 8.55049e-011 -1.09726e-011
